<svg xmlns="http://www.w3.org/2000/svg" version="1.1" xmlns:xlink="http://www.w3.org/1999/xlink" xmlns:svgjs="http://svgjs.com/svgjs" width="1440" height="560" preserveAspectRatio="none" viewBox="0 0 1440 560"><g mask="url(&quot;#SvgjsMask1426&quot;)" fill="none"><rect width="1440" height="560" x="0" y="0" fill="url(#SvgjsLinearGradient1427)"></rect><path d="M285.56 144.76L333.88 144.76L333.88 193.08L285.56 193.08z" stroke="rgba(197, 125, 255, 1)"></path><path d="M250.64 14.66 a52.48 52.48 0 1 0 104.96 0 a52.48 52.48 0 1 0 -104.96 0z" fill="rgba(197, 125, 255, 1)"></path><path d="M628.67 479.97a9.68 9.68 0 1 0 14.18-13.18z" stroke="rgba(130, 49, 225, 1)"></path><path d="M1369.6 437.81 a4.76 4.76 0 1 0 9.52 0 a4.76 4.76 0 1 0 -9.52 0z" fill="rgba(111, 240, 255, 1)"></path><path d="M113 148.15L168.15 148.15L168.15 168.46L113 168.46z" stroke="rgba(197, 125, 255, 1)"></path><path d="M1226 503.56a8.99 8.99 0 1 0-17.97 0.45z" stroke="rgba(111, 240, 255, 1)"></path><path d="M1160.47 136.4L1192.64 136.4L1192.64 183.17L1160.47 183.17z" fill="rgba(111, 240, 255, 1)"></path><path d="M1111.11 483.45a54.02 54.02 0 1 0 58.86 90.6z" fill="rgba(111, 240, 255, 1)"></path><path d="M493.88 73.65L536.76 73.65L536.76 85.64L493.88 85.64z" stroke="rgba(130, 49, 225, 1)"></path><path d="M509.58 448.4L511.03 448.4L511.03 449.85L509.58 449.85z" fill="rgba(111, 240, 255, 1)"></path><path d="M956.87 315.07a15.3 15.3 0 1 0-26.62 15.1z" stroke="rgba(111, 240, 255, 1)"></path><path d="M526.69 268.83L561.84 268.83L561.84 303.98L526.69 303.98z" fill="rgba(130, 49, 225, 1)"></path><path d="M771.22 47.74L781.67 47.74L781.67 58.19L771.22 58.19z" stroke="rgba(111, 240, 255, 1)"></path><path d="M441.14 232.34 a8.01 8.01 0 1 0 16.02 0 a8.01 8.01 0 1 0 -16.02 0z" fill="rgba(111, 240, 255, 1)"></path><path d="M1134.03 115.51 a26.77 26.77 0 1 0 53.54 0 a26.77 26.77 0 1 0 -53.54 0z" fill="rgba(111, 240, 255, 1)"></path><path d="M493.73 408.83L505.63 408.83L505.63 420.73L493.73 420.73z" stroke="rgba(111, 240, 255, 1)"></path><path d="M1342.95 351.7a8.54 8.54 0 1 0 17 1.56z" stroke="rgba(197, 125, 255, 1)"></path><path d="M877.25 48.54 a54.21 54.21 0 1 0 108.42 0 a54.21 54.21 0 1 0 -108.42 0z" stroke="rgba(130, 49, 225, 1)"></path><path d="M605.21 321.4 a3.36 3.36 0 1 0 6.72 0 a3.36 3.36 0 1 0 -6.72 0z" fill="rgba(111, 240, 255, 1)"></path><path d="M1186.99 196.72a36.96 36.96 0 1 0-73.87-2.58z" fill="rgba(130, 49, 225, 1)"></path><path d="M46.15 90.98a33.26 33.26 0 1 0 34.24-57.03z" stroke="rgba(197, 125, 255, 1)"></path><path d="M428.82 445.53a17.57 17.57 0 1 0-16.86-30.83z" stroke="rgba(197, 125, 255, 1)"></path><path d="M1176.08 112.32L1182.34 112.32L1182.34 118.58L1176.08 118.58z" stroke="rgba(130, 49, 225, 1)"></path><path d="M1392.19 383.78L1434.38 383.78L1434.38 425.97L1392.19 425.97z" fill="rgba(130, 49, 225, 1)"></path><path d="M1409.03 337.1L1414.57 337.1L1414.57 342.64L1409.03 342.64z" fill="rgba(111, 240, 255, 1)"></path><path d="M179.48 520.73L216.14 520.73L216.14 557.39L179.48 557.39z" stroke="rgba(111, 240, 255, 1)"></path><path d="M445.84 276.21a15.97 15.97 0 1 0 2.82-31.82z" stroke="rgba(130, 49, 225, 1)"></path><path d="M969.75 11.87 a50.42 50.42 0 1 0 100.84 0 a50.42 50.42 0 1 0 -100.84 0z" fill="rgba(130, 49, 225, 1)"></path><path d="M1101.95 365.45 a14.48 14.48 0 1 0 28.96 0 a14.48 14.48 0 1 0 -28.96 0z" stroke="rgba(130, 49, 225, 1)"></path><path d="M323.33 555.5 a52.39 52.39 0 1 0 104.78 0 a52.39 52.39 0 1 0 -104.78 0z" fill="rgba(130, 49, 225, 1)"></path><path d="M1321.38 32.77 a12.45 12.45 0 1 0 24.9 0 a12.45 12.45 0 1 0 -24.9 0z" fill="rgba(130, 49, 225, 1)"></path><path d="M15.61 487.82L33.54 487.82L33.54 509.74L15.61 509.74z" fill="rgba(130, 49, 225, 1)"></path><path d="M45.96 65.15a23.85 23.85 0 1 0-22.56-42.03z" stroke="rgba(197, 125, 255, 1)"></path></g><defs><mask id="SvgjsMask1426"><rect width="1440" height="560" fill="#ffffff"></rect></mask><linearGradient x1="15.28%" y1="139.29%" x2="84.72%" y2="-39.29%" gradientUnits="userSpaceOnUse" id="SvgjsLinearGradient1427"><stop stop-color="rgba(241, 241, 241, 0.99)" offset="0.92"></stop><stop stop-color="rgba(255, 255, 255, 0.99)" offset="1"></stop></linearGradient></defs></svg>